<svg xmlns="http://www.w3.org/2000/svg" viewBox="0 0 64 64" width="64" height="64" role="img" aria-label="Mi Voz Cuenta">
  <title>Mi Voz Cuenta</title>

  <!-- Globe: blue circle -->
  <circle cx="32" cy="32" r="30" fill="#003DA5"/>

  <!-- Globe: latitude lines -->
  <path d="M4,32 Q32,22 60,32" fill="none" stroke="white" stroke-width="1" opacity="0.45"/>
  <path d="M4,32 Q32,42 60,32" fill="none" stroke="white" stroke-width="1" opacity="0.45"/>

  <!-- Globe: meridians -->
  <line x1="32" y1="2" x2="32" y2="62" stroke="white" stroke-width="1" opacity="0.45"/>
  <path d="M20,4 Q10,32 20,60" fill="none" stroke="white" stroke-width="0.8" opacity="0.3"/>
  <path d="M44,4 Q54,32 44,60" fill="none" stroke="white" stroke-width="0.8" opacity="0.3"/>

  <!-- White continent blobs -->
  <ellipse cx="22" cy="26" rx="7" ry="5.5" fill="white" opacity="0.88" transform="rotate(-12 22 26)"/>
  <ellipse cx="40" cy="35" rx="6" ry="5" fill="white" opacity="0.88" transform="rotate(8 40 35)"/>
  <ellipse cx="26" cy="40" rx="4" ry="3" fill="white" opacity="0.75"/>

  <!-- Microphone badge (bottom-right) -->
  <circle cx="46" cy="48" r="16" fill="white" stroke="#003DA5" stroke-width="1.2"/>
  <!-- Mic body (yellow) -->
  <rect x="41" y="37" width="10" height="14" rx="5" fill="#FFD200"/>
  <!-- Mic stand arc (blue) -->
  <path d="M37,48 Q37,58 46,58 Q55,58 55,48" fill="none" stroke="#003DA5" stroke-width="2" stroke-linecap="round"/>
  <!-- Mic stand line (blue) -->
  <line x1="46" y1="58" x2="46" y2="63" stroke="#003DA5" stroke-width="2" stroke-linecap="round"/>
  <!-- Mic base (red) -->
  <line x1="41" y1="63" x2="51" y2="63" stroke="#CF142B" stroke-width="2.5" stroke-linecap="round"/>
</svg>
